# xmcd
#
# Track frame offsets:
#	150
#	16156
#	29219
#	43695
#	59386
#	76478
#	91184
#	107346
#	121518
#	138584
#	155478
#	170937
#	183553
#
# Disc length: 2643 seconds
#
# Revision: 1
# Processed by: cddbd v1.4PL0 Copyright (c) Steve Scherf et al.
# Submitted via: EasyCDDAExtractor 5.0.6
#
DISCID=a90a510d
DTITLE=Jody Jenkins - Dancin' The Night Away
DYEAR=1900
DGENRE=Country
TTITLE0=Every Single Thing
TTITLE1=Walkin' The Floor (Over Her Again)
TTITLE2=Baby's Back In Town
TTITLE3=Dancin' The Night Away
TTITLE4=Daddy Never Had A Broken Heart
TTITLE5=Me And Margarita
TTITLE6=Louisiana Heatwave
TTITLE7=Tell Me It Ain't True
TTITLE8=Country Dance Floor
TTITLE9=Cowboy Cumbia
TTITLE10=The Promise
TTITLE11=The Presidents
TTITLE12=Just Me And You
EXTD=
EXTT0=
EXTT1=
EXTT2=
EXTT3=
EXTT4=
EXTT5=
EXTT6=
EXTT7=
EXTT8=
EXTT9=
EXTT10=
EXTT11=
EXTT12=
PLAYORDER=
